<?xml version="1.0" encoding="utf-8"?>
<!-- Generator: Adobe Illustrator 16.0.0, SVG Export Plug-In . SVG Version: 6.00 Build 0)  -->
<!DOCTYPE svg PUBLIC "-//W3C//DTD SVG 1.1//EN" "http://www.w3.org/Graphics/SVG/1.1/DTD/svg11.dtd">
<svg version="1.1" id="Layer_1" xmlns="http://www.w3.org/2000/svg" xmlns:xlink="http://www.w3.org/1999/xlink" x="0px" y="0px"
	 width="57.96px" height="57.961px" viewBox="0 0 57.96 57.961" enable-background="new 0 0 57.96 57.961" xml:space="preserve">
<g id="Layer_2">
</g>
<g display="none">
	<path display="inline" fill="#464547" d="M145.152,331.09c0,0.869-0.814,1.573-1.818,1.573l0,0c-1.006,0-1.819-0.704-1.819-1.573
		v-30.296c0-0.869,0.813-1.574,1.819-1.574l0,0c1.004,0,1.818,0.704,1.818,1.574V331.09z"/>
	<path display="inline" fill="#464547" d="M156.846,331.09c0,0.869-0.813,1.573-1.82,1.573l0,0c-1.004,0-1.817-0.704-1.817-1.573
		v-30.296c0-0.869,0.813-1.574,1.817-1.574l0,0c1.006,0,1.82,0.704,1.82,1.574V331.09z"/>
</g>
<g>
	<path fill="#464547" d="M28.979,0.854c-15.506,0-28.124,12.616-28.124,28.125c0,15.508,12.617,28.127,28.124,28.127
		c15.51,0,28.125-12.617,28.125-28.127C57.105,13.471,44.49,0.854,28.979,0.854z M28.979,53.223
		c-13.366,0-24.242-10.875-24.242-24.243S15.614,4.736,28.979,4.736c13.37,0,24.245,10.875,24.245,24.243
		S42.349,53.223,28.979,53.223z"/>
	<g>
		<path fill="#464547" d="M21.927,15.224c-1.577,0-2.812,0.968-2.812,2.202v23.109c0,1.233,1.235,2.2,2.812,2.2
			c1.577,0,2.812-0.967,2.812-2.2V17.426C24.739,16.192,23.504,15.224,21.927,15.224z"/>
		<path fill="#464547" d="M36.037,15.224c-1.576,0-2.811,0.968-2.811,2.202v23.109c0,1.233,1.234,2.2,2.811,2.2
			s2.812-0.967,2.812-2.2V17.426C38.847,16.192,37.613,15.224,36.037,15.224z"/>
	</g>
</g>
</svg>
