<?xml version="1.0" encoding="utf-8"?>
<!-- Generator: Adobe Illustrator 16.0.0, SVG Export Plug-In . SVG Version: 6.00 Build 0)  -->
<!DOCTYPE svg PUBLIC "-//W3C//DTD SVG 1.1//EN" "http://www.w3.org/Graphics/SVG/1.1/DTD/svg11.dtd">
<svg version="1.1" id="Layer_1" xmlns="http://www.w3.org/2000/svg" xmlns:xlink="http://www.w3.org/1999/xlink" x="0px" y="0px"
	 width="57.96px" height="57.961px" viewBox="0 0 57.96 57.961" enable-background="new 0 0 57.96 57.961" xml:space="preserve">
<g id="Layer_2">
</g>
<g display="none">
	<path display="inline" fill="#464547" d="M145.152,331.09c0,0.869-0.814,1.573-1.818,1.573l0,0c-1.006,0-1.819-0.704-1.819-1.573
		v-30.296c0-0.869,0.813-1.574,1.819-1.574l0,0c1.004,0,1.818,0.704,1.818,1.574V331.09z"/>
	<path display="inline" fill="#464547" d="M156.846,331.09c0,0.869-0.813,1.573-1.82,1.573l0,0c-1.004,0-1.817-0.704-1.817-1.573
		v-30.296c0-0.869,0.813-1.574,1.817-1.574l0,0c1.006,0,1.82,0.704,1.82,1.574V331.09z"/>
</g>
<g>
	<path fill="#464547" d="M44.827,25.836L25.083,12.693c-1.139-0.757-2.67-0.833-3.874-0.189c-1.23,0.656-1.994,1.929-1.994,3.324
		v26.291c0,1.395,0.765,2.668,1.995,3.324c0.547,0.293,1.163,0.449,1.781,0.449c0.748,0,1.472-0.223,2.093-0.639l19.747-13.143
		c1.052-0.703,1.683-1.877,1.683-3.139C46.509,27.709,45.877,26.538,44.827,25.836z M41.478,29.073c0,0.738-0.369,1.423-0.975,1.824
		l-15.46,9.529c-0.409,0.27-1.077,0.4-1.569,0.459V16.87c0.434,0.022,1.139,0.104,1.57,0.387l15.447,10.188
		C41.171,27.899,41.478,28.401,41.478,29.073z"/>
	<path fill="#464547" d="M28.98,0.855c-15.507,0-28.125,12.617-28.125,28.125c0,15.508,12.617,28.125,28.125,28.125
		c15.51,0,28.125-12.617,28.125-28.125C57.105,13.472,44.49,0.855,28.98,0.855z M28.98,53.225
		c-13.368,0-24.243-10.877-24.243-24.245c0-13.368,10.875-24.243,24.243-24.243c13.369,0,24.244,10.875,24.244,24.243
		C53.224,42.348,42.349,53.225,28.98,53.225z"/>
</g>
</svg>
